[Header]
FileType HTR
DataType HTRS
FileVersion 1
NumSegments 64
NumFrames 4
DataFrameRate 30
EulerRotationOrder ZYX
CalibrationUnits mm
RotationUnits Degrees
GlobalAxisofGravity Y
BoneLengthAxis Y
ScaleFactor 1.0
[SegmentNames&Hierarchy]
Hips	GLOBAL
Spine	Hips
Spine1	Spine
Spine2	Spine1
Neck	Spine2
Head	Neck
LeftEye	Head
RightEye	Head
LeftShoulder	Spine2
LeftArm	LeftShoulder
LeftForeArm	LeftArm
LeftHand	LeftForeArm
LeftHandThumb1	LeftHand
LeftHandThumb2	LeftHandThumb1
LeftHandThumb3	LeftHandThumb2
LeftHandThumb4	LeftHandThumb3
LeftHandIndex1	LeftHand
LeftHandIndex2	LeftHandIndex1
LeftHandIndex3	LeftHandIndex2
LeftHandIndex4	LeftHandIndex3
LeftHandMiddle1	LeftHand
LeftHandMiddle2	LeftHandMiddle1
LeftHandMiddle3	LeftHandMiddle2
LeftHandMiddle4	LeftHandMiddle3
LeftHandRing1	LeftHand
LeftHandRing2	LeftHandRing1
LeftHandRing3	LeftHandRing2
LeftHandRing4	LeftHandRing3
LeftHandPinky1	LeftHand
LeftHandPinky2	LeftHandPinky1
LeftHandPinky3	LeftHandPinky2
LeftHandPinky4	LeftHandPinky3
RightShoulder	Spine2
RightArm	RightShoulder
RightForeArm	RightArm
RightHand	RightForeArm
RightHandPinky1	RightHand
RightHandPinky2	RightHandPinky1
RightHandPinky3	RightHandPinky2
RightHandPinky4	RightHandPinky3
RightHandRing1	RightHand
RightHandRing2	RightHandRing1
RightHandRing3	RightHandRing2
RightHandRing4	RightHandRing3
RightHandMiddle1	RightHand
RightHandMiddle2	RightHandMiddle1
RightHandMiddle3	RightHandMiddle2
RightHandMiddle4	RightHandMiddle3
RightHandIndex1	RightHand
RightHandIndex2	RightHandIndex1
RightHandIndex3	RightHandIndex2
RightHandIndex4	RightHandIndex3
RightHandThumb1	RightHand
RightHandThumb2	RightHandThumb1
RightHandThumb3	RightHandThumb2
RightHandThumb4	RightHandThumb3
LeftUpLeg	Hips
LeftLeg	LeftUpLeg
LeftFoot	LeftLeg
LeftToeBase	LeftFoot
RightUpLeg	Hips
RightLeg	RightUpLeg
RightFoot	RightLeg
RightToeBase	RightFoot
[BasePosition]
Hips	0	0	0	0	0	0	1
Spine	0	0	0	0	0	0	1
Spine1	0	0	0	0	0	0	1
Spine2	0	0	0	0	0	0	1
Neck	0	0	0	0	0	0	1
Head	0	0	0	0	0	0	1
LeftEye	0	0	0	0	0	0	1
RightEye	0	0	0	0	0	0	1
LeftShoulder	0	0	0	0	0	0	1
LeftArm	0	0	0	0	0	0	1
LeftForeArm	0	0	0	0	0	0	1
LeftHand	0	0	0	0	0	0	1
LeftHandThumb1	0	0	0	0	0	0	1
LeftHandThumb2	0	0	0	0	0	0	1
LeftHandThumb3	0	0	0	0	0	0	1
LeftHandThumb4	0	0	0	0	0	0	1
LeftHandIndex1	0	0	0	0	0	0	1
LeftHandIndex2	0	0	0	0	0	0	1
LeftHandIndex3	0	0	0	0	0	0	1
LeftHandIndex4	0	0	0	0	0	0	1
LeftHandMiddle1	0	0	0	0	0	0	1
LeftHandMiddle2	0	0	0	0	0	0	1
LeftHandMiddle3	0	0	0	0	0	0	1
LeftHandMiddle4	0	0	0	0	0	0	1
LeftHandRing1	0	0	0	0	0	0	1
LeftHandRing2	0	0	0	0	0	0	1
LeftHandRing3	0	0	0	0	0	0	1
LeftHandRing4	0	0	0	0	0	0	1
LeftHandPinky1	0	0	0	0	0	0	1
LeftHandPinky2	0	0	0	0	0	0	1
LeftHandPinky3	0	0	0	0	0	0	1
LeftHandPinky4	0	0	0	0	0	0	1
RightShoulder	0	0	0	0	0	0	1
RightArm	0	0	0	0	0	0	1
RightForeArm	0	0	0	0	0	0	1
RightHand	0	0	0	0	0	0	1
RightHandPinky1	0	0	0	0	0	0	1
RightHandPinky2	0	0	0	0	0	0	1
RightHandPinky3	0	0	0	0	0	0	1
RightHandPinky4	0	0	0	0	0	0	1
RightHandRing1	0	0	0	0	0	0	1
RightHandRing2	0	0	0	0	0	0	1
RightHandRing3	0	0	0	0	0	0	1
RightHandRing4	0	0	0	0	0	0	1
RightHandMiddle1	0	0	0	0	0	0	1
RightHandMiddle2	0	0	0	0	0	0	1
RightHandMiddle3	0	0	0	0	0	0	1
RightHandMiddle4	0	0	0	0	0	0	1
RightHandIndex1	0	0	0	0	0	0	1
RightHandIndex2	0	0	0	0	0	0	1
RightHandIndex3	0	0	0	0	0	0	1
RightHandIndex4	0	0	0	0	0	0	1
RightHandThumb1	0	0	0	0	0	0	1
RightHandThumb2	0	0	0	0	0	0	1
RightHandThumb3	0	0	0	0	0	0	1
RightHandThumb4	0	0	0	0	0	0	1
LeftUpLeg	0	0	0	0	0	0	1
LeftLeg	0	0	0	0	0	0	1
LeftFoot	0	0	0	0	0	0	1
LeftToeBase	0	0	0	0	0	0	1
RightUpLeg	0	0	0	0	0	0	1
RightLeg	0	0	0	0	0	0	1
RightFoot	0	0	0	0	0	0	1
RightToeBase	0	0	0	0	0	0	1
[Hips]
44	1.211209059	689.9219971	294.1773071	-3.901468992	0.7267035246	-1.35303247	1.0
45	1.321526289	713.8763428	267.9432068	-4.281210899	0.5429913402	-1.515228629	1.0
46	1.448791504	740.9442139	239.1494141	-4.346930981	0.3566273749	-1.688191891	1.0
47	1.577728033	769.3739014	209.8986816	-4.130562305	0.1759790033	-1.81953001	1.0
[Spine]
44	0	101.8159943	1.315000057	14.18508816	6.793642044	3.244889736	1.0
45	0	101.8159943	1.315000057	13.17636204	10.26393795	4.053242207	1.0
46	0	101.8159943	1.315000057	11.60799694	13.4236002	4.54010725	1.0
47	0	101.8159943	1.315000057	9.989887238	15.69304276	4.631273746	1.0
[Spine1]
44	0	100.8349991	-10.00800037	-18.99316978	7.423064232	-2.576138496	1.0
45	0	100.8349991	-10.00800037	-17.09018707	10.71728992	-3.324666023	1.0
46	0	100.8349991	-10.00800037	-14.14182854	13.7677269	-3.501512051	1.0
47	0	100.8349991	-10.00800037	-11.10688972	15.94196796	-3.137249947	1.0
[Spine2]
44	0	91	-13.73399925	-1.87610364	7.849190235	-0.2572894394	1.0
45	0	91	-13.73399925	-1.525617838	11.21295738	-0.2998068631	1.0
46	0	91	-13.73399925	-0.9854747653	14.19544697	-0.2464262545	1.0
47	0	91	-13.73399925	-0.431907326	16.24161148	-0.121260263	1.0
[Neck]
44	0	166.7169952	-25.16200066	0.8619984984	-7.935681343	0.3772200346	1.0
45	0	166.7169952	-25.16200066	0.8642585874	-11.33105278	0.5826333165	1.0
46	0	166.7169952	-25.16200066	0.772980988	-14.31509686	0.7409272194	1.0
47	0	166.7169952	-25.16200066	0.658197701	-16.33632469	0.7935242057	1.0
[Head]
44	0	96.17900085	16.84999847	-3.279449463	-14.66532993	0.7523477674	1.0
45	0	96.17900085	16.84999847	-2.161204815	-21.69512749	0.9774669409	1.0
46	0	96.17900085	16.84999847	-0.634527564	-28.02085114	0.9262865782	1.0
47	0	96.17900085	16.84999847	0.8873897791	-32.40961456	0.5825352073	1.0
[LeftEye]
44	30.6760006	64.09500122	92.83599854	0	0	0	1.0
45	30.6760006	64.09500122	92.83599854	0	0	0	1.0
46	30.6760006	64.09500122	92.83599854	0	0	0	1.0
47	30.6760006	64.09500122	92.83599854	0	0	0	1.0
[RightEye]
44	-30.6760006	64.09500122	92.83499908	0	0	0	1.0
45	-30.6760006	64.09500122	92.83499908	0	0	0	1.0
46	-30.6760006	64.09500122	92.83499908	0	0	0	1.0
47	-30.6760006	64.09500122	92.83499908	0	0	0	1.0
[LeftShoulder]
44	45.70400238	109.4599991	-26.28000069	-0.2632594407	0.0003869614447	-4.146226883	1.0
45	45.70400238	109.4599991	-26.28000069	-0.2118033916	0.0002814240579	-3.339710712	1.0
46	45.70400238	109.4599991	-26.28000069	-0.1349257678	9.442011651e-05	-2.131273985	1.0
47	45.70400238	109.4599991	-26.28000069	-0.05869619548	5.511637937e-05	-0.926020503	1.0
[LeftArm]
44	105.923996	-5.24600029	-22.32099915	7.678776741	0.01681915857	6.192276001	1.0
45	105.923996	-5.24600029	-22.32099915	6.18538475	0.01219445653	4.987770557	1.0
46	105.923996	-5.24600029	-22.32099915	3.947074413	0.004405434709	3.183050156	1.0
47	105.923996	-5.24600029	-22.32099915	1.696100354	0.002275970532	1.383113027	1.0
[LeftForeArm]
44	278.414978	-0.0009999999311	0	-1.239791231e-06	-42.58509064	-0.0002042872802	1.0
45	278.414978	-0.0009999999311	0	-5.410547601e-07	-60.87531662	-0.0002048858732	1.0
46	278.414978	-0.0009999999311	0	-9.357251542e-07	-77.87033081	-0.0002060416446	1.0
47	278.414978	-0.0009999999311	0	-1.486823322e-07	-91.09726715	-0.0001995555067	1.0
[LeftHand]
44	283.2879944	0	0	-7.633974552	-2.247428894	7.654584408	1.0
45	283.2879944	0	0	-7.295545101	-2.266943693	6.819904327	1.0
46	283.2879944	0	0	-6.788449287	-2.295943499	5.569120407	1.0
47	283.2879944	0	0	-6.282726765	-2.325518608	4.321365356	1.0
[LeftHandThumb1]
44	24.6609993	-15.75	26.8239994	-9.066142082	-5.461432457	8.026553154	1.0
45	24.6609993	-15.75	26.8239994	-8.56932354	-5.488063335	7.491191864	1.0
46	24.6609993	-15.75	26.8239994	-7.825487137	-5.527122498	6.688131809	1.0
47	24.6609993	-15.75	26.8239994	-7.08465147	-5.565602303	5.885635853	1.0
[LeftHandThumb2]
44	32.29800034	-18.64699936	18.64699936	3.633458138	12.93910694	2.421643734	1.0
45	32.29800034	-18.64699936	18.64699936	4.176359177	12.84078026	2.47898984	1.0
46	32.29800034	-18.64699936	18.64699936	4.989395142	12.69297981	2.563520432	1.0
47	32.29800034	-18.64699936	18.64699936	5.799646378	12.54488564	2.645594835	1.0
[LeftHandThumb3]
44	26.52600098	-15.31499958	15.31499958	-8.321633339	1.72778666	12.88436794	1.0
45	26.52600098	-15.31499958	15.31499958	-8.110672951	1.637192011	12.92606449	1.0
46	26.52600098	-15.31499958	15.31499958	-7.794660091	1.501321912	12.98805618	1.0
47	26.52600098	-15.31499958	15.31499958	-7.47959137	1.36562562	13.04909611	1.0
[LeftHandThumb4]
44	19.54599953	-11.28499985	11.28499985	0	0	0	1.0
45	19.54599953	-11.28499985	11.28499985	0	0	0	1.0
46	19.54599953	-11.28499985	11.28499985	0	0	0	1.0
47	19.54599953	-11.28499985	11.28499985	0	0	0	1.0
[LeftHandIndex1]
44	91.09299469	-5.170999527	22.60099792	0.2434775829	1.850179195	4.874212742	1.0
45	91.09299469	-5.170999527	22.60099792	0.1903564185	2.014088869	3.322309256	1.0
46	91.09299469	-5.170999527	22.60099792	0.1041167602	2.257440805	0.9966048598	1.0
47	91.09299469	-5.170999527	22.60099792	0.007443114184	2.496094465	-1.323770523	1.0
[LeftHandIndex2]
44	36.76399994	0	0	1.678509534e-06	3.352160547e-06	-8.05005493e-06	1.0
45	36.76399994	0	0	-1.497132587e-07	-3.099054311e-07	8.479481153e-07	1.0
46	36.76399994	0	0	-1.590277359e-15	-3.180554719e-15	0	1.0
47	36.76399994	0	0	-6.444567191e-08	6.349413866e-07	-3.598377702e-07	1.0
[LeftHandIndex3]
44	28.83100128	0	0	-0.006321464665	-0.2726314366	2.673293591	1.0
45	28.83100128	0	0	-0.004173962865	-0.2196197659	2.153273821	1.0
46	28.83100128	0	0	-0.001684148912	-0.1401841193	1.374127984	1.0
47	28.83100128	0	0	-0.0003659839276	-0.06090674549	0.5970513821	1.0
[LeftHandIndex4]
44	23.92700005	0	0	0	0	0	1.0
45	23.92700005	0	0	0	0	0	1.0
46	23.92700005	0	0	0	0	0	1.0
47	23.92700005	0	0	0	0	0	1.0
[LeftHandMiddle1]
44	95.33399963	0	0	0.2617381811	1.789180279	5.447568417	1.0
45	95.33399963	0	0	0.2063318044	1.965351582	3.784218073	1.0
46	95.33399963	0	0	0.115650259	2.226796627	1.291474462	1.0
47	95.33399963	0	0	0.01294591092	2.482981443	-1.195610523	1.0
[LeftHandMiddle2]
44	36.98199844	0	0	-1.152257369e-06	1.893537274e-06	-5.225767381e-05	1.0
45	36.98199844	0	0	-1.941027904e-06	7.073545021e-07	-3.147131793e-05	1.0
46	36.98199844	0	0	-1.642058045e-08	3.335437896e-06	-4.062685912e-05	1.0
47	36.98199844	0	0	2.657173354e-06	1.009433709e-05	-1.548851287e-05	1.0
[LeftHandMiddle3]
44	29.50900078	0	0	-0.007463525981	-0.2962187529	2.904780149	1.0
45	29.50900078	0	0	-0.004930196796	-0.2386318743	2.339731693	1.0
46	29.50900078	0	0	-0.001984191826	-0.1523056179	1.493111849	1.0
47	29.50900078	0	0	-0.0004340003361	-0.06618950516	0.6487472057	1.0
[LeftHandMiddle4]
44	28.3390007	0	0	0	0	0	1.0
45	28.3390007	0	0	0	0	0	1.0
46	28.3390007	0	0	0	0	0	1.0
47	28.3390007	0	0	0	0	0	1.0
[LeftHandRing1]
44	91.04499817	-0.4390000105	-18.65100098	0.2331213504	1.883831859	4.557132721	1.0
45	91.04499817	-0.4390000105	-18.65100098	0.1813537329	2.040980101	3.066864967	1.0
46	91.04499817	-0.4390000105	-18.65100098	0.09766596556	2.274341822	0.8335393071	1.0
47	91.04499817	-0.4390000105	-18.65100098	0.004382866435	2.503339052	-1.394643188	1.0
[LeftHandRing2]
44	31.54000092	0	0	-1.063070385e-06	1.785983159e-06	-3.8547023e-05	1.0
45	31.54000092	0	0	-2.07298649e-06	4.253128736e-06	-0.00011198211	1.0
46	31.54000092	0	0	4.668643072e-08	1.435249942e-06	-0.0001006060484	1.0
47	31.54000092	0	0	-4.691698621e-07	7.438495686e-07	-1.981407695e-05	1.0
[LeftHandRing3]
44	29.37700081	0	0	-0.007223239169	-0.2914102077	2.857600689	1.0
45	29.37700081	0	0	-0.004770734813	-0.2347609848	2.301727295	1.0
46	29.37700081	0	0	-0.001919972594	-0.149841398	1.468859673	1.0
47	29.37700081	0	0	-0.0004174400819	-0.06510522217	0.6382135749	1.0
[LeftHandRing4]
44	26.47500038	0	0	0	0	0	1.0
45	26.47500038	0	0	0	0	0	1.0
46	26.47500038	0	0	0	0	0	1.0
47	26.47500038	0	0	0	0	0	1.0
[LeftHandPinky1]
44	80.77799988	-4.887000084	-38.06099701	0.1932066977	2.007796049	3.384268761	1.0
45	80.77799988	-4.887000084	-38.06099701	0.1470026672	2.140093565	2.12199235	1.0
46	80.77799988	-4.887000084	-38.06099701	0.0734032318	2.336737156	0.230378598	1.0
47	80.77799988	-4.887000084	-38.06099701	-0.007014795206	2.530097008	-1.656785488	1.0
[LeftHandPinky2]
44	36	0	0	1.27705664e-06	2.795460659e-06	3.086011304e-07	1.0
45	36	0	0	-9.349950147e-08	-1.172942348e-06	-3.112667628e-06	1.0
46	36	0	0	1.462897927e-07	-5.615761893e-06	-1.885706661e-05	1.0
47	36	0	0	2.457668735e-08	-9.43447958e-07	-3.167987416e-06	1.0
[LeftHandPinky3]
44	21.14200211	0	0	-0.007398618385	-0.2948461771	2.891319275	1.0
45	21.14200211	0	0	-0.004884805065	-0.2375177294	2.328885555	1.0
46	21.14200211	0	0	-0.001965276664	-0.1515987515	1.486195445	1.0
47	21.14200211	0	0	-0.0004292889498	-0.06588099152	0.6457449794	1.0
[LeftHandPinky4]
44	19.75699997	0	0	0	0	0	1.0
45	19.75699997	0	0	0	0	0	1.0
46	19.75699997	0	0	0	0	0	1.0
47	19.75699997	0	0	0	0	0	1.0
[RightShoulder]
44	-45.70000076	109.4620056	-26.28000069	-0.263250798	-0.0003884025791	4.146230698	1.0
45	-45.70000076	109.4620056	-26.28000069	-0.2117941082	-0.0002856151841	3.339713812	1.0
46	-45.70000076	109.4620056	-26.28000069	-0.1349190176	-9.875684918e-05	2.131278038	1.0
47	-45.70000076	109.4620056	-26.28000069	-0.05869429559	-3.461745655e-05	0.926025629	1.0
[RightArm]
44	-105.9280014	-5.248000145	-22.32099915	7.678761482	-0.01677901857	-6.192209244	1.0
45	-105.9280014	-5.248000145	-22.32099915	6.185368061	-0.01213768311	-4.98768568	1.0
46	-105.9280014	-5.248000145	-22.32099915	3.947062969	-0.004343620501	-3.182947874	1.0
47	-105.9280014	-5.248000145	-22.32099915	1.696097136	-0.002204519929	-1.382987261	1.0
[RightForeArm]
44	-278.414978	0	0	-7.081316085e-07	42.58491516	-9.453351026e-07	1.0
45	-278.414978	0	0	-4.408948371e-07	60.87514877	-2.061592795e-06	1.0
46	-278.414978	0	0	3.461297524e-07	77.87018585	6.073852177e-08	1.0
47	-278.414978	0	0	6.763814042e-08	91.0970993	1.395846903e-05	1.0
[RightHand]
44	-283.2879944	0	0.0009999999311	-6.423229218	2.197136402	-6.895596981	1.0
45	-283.2879944	0	0.0009999999311	-6.084572315	2.212165594	-6.061228752	1.0
46	-283.2879944	0	0.0009999999311	-5.577146053	2.234429836	-4.810938835	1.0
47	-283.2879944	0	0.0009999999311	-5.071091652	2.257324219	-3.563747168	1.0
[RightHandPinky1]
44	-80.76699829	-4.885000229	-38.06000137	0.1990124732	-1.943755865	-4.089884758	1.0
45	-80.76699829	-4.885000229	-38.06000137	0.1545603424	-2.049872875	-2.825199127	1.0
46	-80.76699829	-4.885000229	-38.06000137	0.08444856107	-2.207363844	-0.9300535321	1.0
47	-80.76699829	-4.885000229	-38.06000137	0.008903984912	-2.361827135	0.9604970217	1.0
[RightHandPinky2]
44	-36	0	0.0009999999311	1.253389883e-06	0.001584797632	-9.219810977e-07	1.0
45	-36	0	0.0009999999311	1.268888809e-06	0.001585536171	4.521788469e-06	1.0
46	-36	0	0.0009999999311	7.416339258e-07	0.001579274074	3.128599201e-05	1.0
47	-36	0	0.0009999999311	-4.286903987e-08	0.001591552049	4.175433332e-06	1.0
[RightHandPinky3]
44	-21.14200211	0	0	-0.005892793182	0.2345318496	-2.89683485	1.0
45	-21.14200211	0	0	-0.003891515778	0.1889329553	-2.333329201	1.0
46	-21.14200211	0	0	-0.001567166415	0.1205899268	-1.48903203	1.0
47	-21.14200211	0	0	-0.0003408631892	0.05238588527	-0.6469772458	1.0
[RightHandPinky4]
44	-19.75699997	0	0	0	0	0	1.0
45	-19.75699997	0	0	0	0	0	1.0
46	-19.75699997	0	0	0	0	0	1.0
47	-19.75699997	0	0	0	0	0	1.0
[RightHandRing1]
44	-91.03599548	-0.4390000105	-18.65100098	0.2378929704	-1.842560649	-5.265017033	1.0
45	-91.03599548	-0.4390000105	-18.65100098	0.1876500994	-1.96876812	-3.771862268	1.0
46	-91.03599548	-0.4390000105	-18.65100098	0.107445024	-2.155854464	-1.534311533	1.0
47	-91.03599548	-0.4390000105	-18.65100098	0.01958047785	-2.338870525	0.6978935599	1.0
[RightHandRing2]
44	-31.54000092	0	0	-1.749177159e-07	1.482826633e-06	3.154276783e-05	1.0
45	-31.54000092	0	0	-9.206924005e-07	-1.529875476e-06	1.479981256e-05	1.0
46	-31.54000092	0	0	-4.979702339e-07	-6.047605439e-06	0.0001083943862	1.0
47	-31.54000092	0	0	2.818654865e-09	-9.797894336e-07	1.56608985e-05	1.0
[RightHandRing3]
44	-29.37700081	0	0	-0.005756851286	0.2317938805	-2.863044739	1.0
45	-29.37700081	0	0	-0.003805859014	0.1867402643	-2.306117773	1.0
46	-29.37700081	0	0	-0.001529785804	0.1191849709	-1.471666932	1.0
47	-29.37700081	0	0	-0.0003326509031	0.05177635327	-0.6394321918	1.0
[RightHandRing4]
44	-26.47500038	0	0	0	0	0	1.0
45	-26.47500038	0	0	0	0	0	1.0
46	-26.47500038	0	0	0	0	0	1.0
47	-26.47500038	0	0	0	0	0	1.0
[RightHandMiddle1]
44	-95.32500458	0	0	0.2660494447	-1.766407847	-6.157203197	1.0
45	-95.32500458	0	0	0.211878404	-1.908032656	-4.490604401	1.0
46	-95.32500458	0	0	0.1245495752	-2.11779356	-1.993100643	1.0
47	-95.32500458	0	0	0.02761060186	-2.322623968	0.4985069633	1.0
[RightHandMiddle2]
44	-36.98199844	0	0	1.190603029e-06	-5.633795354e-06	3.280264355e-05	1.0
45	-36.98199844	0	0	8.357674233e-07	7.500671927e-06	5.511268682e-05	1.0
46	-36.98199844	0	0	-8.780653502e-07	9.464630239e-06	2.372591553e-05	1.0
47	-36.98199844	0	0	-1.640357397e-07	1.496856612e-06	3.091645112e-06	1.0
[RightHandMiddle3]
44	-29.50900078	0	0	-0.005950486287	0.2335955352	-2.910330057	1.0
45	-29.50900078	0	0	-0.00392802339	0.1877864152	-2.344193935	1.0
46	-29.50900078	0	0	-0.001581587596	0.1191414967	-1.495966315	1.0
47	-29.50900078	0	0	-0.0003437815176	0.05062355474	-0.6499880552	1.0
[RightHandMiddle4]
44	-28.3390007	0	0.0009999999311	0	0	0	1.0
45	-28.3390007	0	0.0009999999311	0	0	0	1.0
46	-28.3390007	0	0.0009999999311	0	0	0	1.0
47	-28.3390007	0	0.0009999999311	0	0	0	1.0
[RightHandIndex1]
44	-91.08300018	-5.167999744	22.60099792	0.2480551302	-1.815495849	-5.582705498	1.0
45	-91.08300018	-5.167999744	22.60099792	0.1963643432	-1.947182298	-4.027787685	1.0
46	-91.08300018	-5.167999744	22.60099792	0.1135695726	-2.142311096	-1.697672486	1.0
47	-91.08300018	-5.167999744	22.60099792	0.02244753949	-2.333092451	0.6268975735	1.0
[RightHandIndex2]
44	-36.76399994	0	0	-1.414930921e-06	3.945126537e-06	2.31174472e-05	1.0
45	-36.76399994	0	0	-2.926291245e-07	3.183967578e-07	2.15449345e-05	1.0
46	-36.76399994	0	0	1.536028975e-07	-4.89422473e-06	6.726722495e-05	1.0
47	-36.76399994	0	0	-4.472230231e-08	-8.471603223e-07	1.10877827e-05	1.0
[RightHandIndex3]
44	-28.83100128	0	0	-0.005036832765	0.2168497443	-2.67839098	1.0
45	-28.83100128	0	0	-0.003325756174	0.1746855974	-2.157378912	1.0
46	-28.83100128	0	0	-0.001340290532	0.1115048826	-1.376747966	1.0
47	-28.83100128	0	0	-0.0002914632205	0.04844705388	-0.5981885195	1.0
[RightHandIndex4]
44	-23.92700005	0	0	0	0	0	1.0
45	-23.92700005	0	0	0	0	0	1.0
46	-23.92700005	0	0	0	0	0	1.0
47	-23.92700005	0	0	0	0	0	1.0
[RightHandThumb1]
44	-24.64799881	-15.72700024	26.82600021	-10.09862614	7.476866722	-7.873920918	1.0
45	-24.64799881	-15.72700024	26.82600021	-9.599494934	7.50576973	-7.321343899	1.0
46	-24.64799881	-15.72700024	26.82600021	-8.852028847	7.548009396	-6.492576122	1.0
47	-24.64799881	-15.72700024	26.82600021	-8.10730648	7.589365482	-5.664617538	1.0
[RightHandThumb2]
44	-32.29800034	-18.64699936	18.64699936	4.300001621	-14.60048199	-3.512772322	1.0
45	-32.29800034	-18.64699936	18.64699936	4.844822407	-14.50462341	-3.568884134	1.0
46	-32.29800034	-18.64699936	18.64699936	5.660727501	-14.36057949	-3.651595831	1.0
47	-32.29800034	-18.64699936	18.64699936	6.473778725	-14.21623802	-3.731880903	1.0
[RightHandThumb3]
44	-26.52600098	-15.31399918	15.31399918	-5.036469936	-7.194749832	-13.90890884	1.0
45	-26.52600098	-15.31399918	15.31399918	-4.825003147	-7.101656914	-13.97044373	1.0
46	-26.52600098	-15.31399918	15.31399918	-4.508328915	-6.961939335	-14.06210804	1.0
47	-26.52600098	-15.31399918	15.31399918	-4.192774296	-6.822221279	-14.15270805	1.0
[RightHandThumb4]
44	-19.54599953	-11.28499985	11.28499985	0	0	0	1.0
45	-19.54599953	-11.28499985	11.28499985	0	0	0	1.0
46	-19.54599953	-11.28499985	11.28499985	0	0	0	1.0
47	-19.54599953	-11.28499985	11.28499985	0	0	0	1.0
[LeftUpLeg]
44	82.07800293	-67.51699829	-15.99599934	-18.96679306	-1.099897265	0.9816170931	1.0
45	82.07800293	-67.51699829	-15.99599934	-20.49580193	-1.066353321	1.08372736	1.0
46	82.07800293	-67.51699829	-15.99599934	-22.18542099	-1.027063251	1.220585585	1.0
47	82.07800293	-67.51699829	-15.99599934	-23.68941879	-0.9616940022	1.34410584	1.0
[LeftLeg]
44	0	-443.7049866	2.845999956	98.94326782	-0.2665655017	1.203838348	1.0
45	0	-443.7049866	2.845999956	96.73678589	-0.2355169654	1.299550891	1.0
46	0	-443.7049866	2.845999956	93.82936096	-0.1754976064	1.362437844	1.0
47	0	-443.7049866	2.845999956	90.22437286	-0.0893535018	1.399381876	1.0
[LeftFoot]
44	0	-444.2789917	-29.8219986	-39.74936676	-0.3827083707	-1.443787575	1.0
45	0	-444.2789917	-29.8219986	-37.97621918	-0.348960638	-1.402656198	1.0
46	0	-444.2789917	-29.8219986	-35.91540527	-0.3000949621	-1.311090827	1.0
47	0	-444.2789917	-29.8219986	-33.94171524	-0.2513467669	-1.200427413	1.0
[LeftToeBase]
44	0	-87.28699493	107.1060028	-41.80168152	5.368935945e-07	2.523665898e-07	1.0
45	0	-87.28699493	107.1060028	-39.28261566	-2.413597429e-07	-4.067529602e-08	1.0
46	0	-87.28699493	107.1060028	-36.38094711	-5.025667065e-07	-6.393356244e-08	1.0
47	0	-87.28699493	107.1060028	-33.1807518	-1.841538619e-07	1.568012209e-07	1.0
[RightUpLeg]
44	-82.07800293	-67.51699829	-15.99599934	-72.45698547	0.5313405991	0.6381852627	1.0
45	-82.07800293	-67.51699829	-15.99599934	-67.49821472	0.6860945821	0.805567205	1.0
46	-82.07800293	-67.51699829	-15.99599934	-61.59566498	0.8475317955	0.9840621948	1.0
47	-82.07800293	-67.51699829	-15.99599934	-56.44834137	0.9897407889	1.178482533	1.0
[RightLeg]
44	0	-443.7049866	2.861999989	59.64897919	-0.6187367439	-1.199573994	1.0
45	0	-443.7049866	2.861999989	50.28210831	-0.8181942701	-1.101643801	1.0
46	0	-443.7049866	2.861999989	38.85955811	-1.046371102	-0.9449210167	1.0
47	0	-443.7049866	2.861999989	30.86224747	-1.150265574	-0.7793111801	1.0
[RightFoot]
44	0	-444.2770081	-29.83799934	16.70434952	-0.1137258559	0.4192759991	1.0
45	0	-444.2770081	-29.83799934	21.49292755	-0.1045877188	0.313405484	1.0
46	0	-444.2770081	-29.83799934	27.07948685	-0.082055673	0.1836755723	1.0
47	0	-444.2770081	-29.83799934	29.71417618	-0.05206549168	0.08050242811	1.0
[RightToeBase]
44	0	-87.28699493	107.1060028	-1.515573604e-05	-2.909377805e-08	-1.999551955e-07	1.0
45	0	-87.28699493	107.1060028	-1.515573604e-05	-2.909377805e-08	-1.999551955e-07	1.0
46	0	-87.28699493	107.1060028	-1.515573604e-05	-2.909377805e-08	-1.999551955e-07	1.0
47	0	-87.28699493	107.1060028	-1.515573604e-05	-2.909377805e-08	-1.999551955e-07	1.0
[EndOfFile]
